<svg width="45" height="45" viewBox="0 0 45 45" fill="none" xmlns="http://www.w3.org/2000/svg">
<g clip-path="url(#clip0_1633_10170)">
<path d="M0.994746 24.8545L14.8737 38.7327C16.1526 40.0116 18.2842 40.0116 19.5632 38.7327C20.8421 37.4538 20.8421 35.3224 19.5632 34.0435L11.3684 25.8018L41.6842 25.8018C43.5316 25.8018 45 24.3334 45 22.4862C45 20.6389 43.5316 19.1705 41.6842 19.1705L11.3684 19.1705L19.5632 10.9762C20.8421 9.69732 20.8421 7.56585 19.5632 6.28697C18.9 5.62384 18.0474 5.29227 17.1947 5.29227C16.3421 5.29227 15.4895 5.62384 14.8263 6.28697L0.994745 20.1179C0.378954 20.7336 9.86116e-06 21.5862 9.93984e-06 22.4862C1.00185e-05 23.3861 0.331587 24.2387 0.994746 24.8545Z" fill="#323232"/>
</g>
<defs>
<clipPath id="clip0_1633_10170">
<rect width="45" height="45" fill="white"/>
</clipPath>
</defs>
</svg>
